# xmcd CD database file
#
# Track frame offsets:
#	150
#	15016
#	37399
#	54038
#	72389
#	95157
#	114816
#	134327
#	180002
#	200540
#	228868
#	254533
#	271532
#	292362
#	314631
#
# Disc length: 4480 seconds
#
# Revision: 1
# Processed by: cddbd v1.5.2PL0 Copyright (c) Steve Scherf et al.
# Submitted via: CDex 1.70beta2
#
DISCID=cf117e0f
DTITLE=Various Artist - All My Dead Friends
DYEAR=2006
DGENRE=Neo-Classical
TTITLE0=Atrium Carceri - End titles
TTITLE1=:Golgatha: - Rite of Spring
TTITLE2=ROME - A La Faveur De La Nuit (Version One)
TTITLE3=Beyond Sensory Experience - In the midst of Death
TTITLE4=Medusa's Spell - Lulling
TTITLE5=Decadence - Love is for ever
TTITLE6=Coph Nia - Hymn to Lucifer (Premix)
TTITLE7=Hrafn - Crawl into dread's labyrinth Act 1
TTITLE8=All My Faith Lost ... - The Waves
TTITLE9=Stormfågel - Halgass
TTITLE10=Pimentola - Psychopompos
TTITLE11=Tharmapsal - Molecules, out!
TTITLE12=Letum - Death will be my friend
TTITLE13=Foundation Hope - Troubled herd crawling
TTITLE14=For Greater Good - Le Jugement Du Roi En Jaune
EXTD=YEAR: 2006
EXTT0=
EXTT1=
EXTT2=
EXTT3=
EXTT4=
EXTT5=
EXTT6=
EXTT7=
EXTT8=
EXTT9=
EXTT10=
EXTT11=
EXTT12=
EXTT13=
EXTT14=
PLAYORDER=
